<?xml version="1.0" encoding="UTF-8" standalone="no"?>
<!-- Created with Inkscape (http://www.inkscape.org/) -->

<svg
   xmlns:dc="http://purl.org/dc/elements/1.1/"
   xmlns:cc="http://creativecommons.org/ns#"
   xmlns:rdf="http://www.w3.org/1999/02/22-rdf-syntax-ns#"
   xmlns:svg="http://www.w3.org/2000/svg"
   xmlns="http://www.w3.org/2000/svg"
   xmlns:sodipodi="http://sodipodi.sourceforge.net/DTD/sodipodi-0.dtd"
   xmlns:inkscape="http://www.inkscape.org/namespaces/inkscape"
   width="290"
   height="450"
   viewBox="0 0 76.729165 119.0625"
   version="1.1"
   id="svg8"
   inkscape:version="0.92.4 (5da689c313, 2019-01-14)"
   sodipodi:docname="soccerplayer.svg">
  <defs
     id="defs2" />
  <sodipodi:namedview
     id="base"
     pagecolor="#ffffff"
     bordercolor="#666666"
     borderopacity="1.0"
     inkscape:pageopacity="0.0"
     inkscape:pageshadow="2"
     inkscape:zoom="0.98994949"
     inkscape:cx="377.85472"
     inkscape:cy="172.93801"
     inkscape:document-units="mm"
     inkscape:current-layer="layer1"
     showgrid="false"
     units="px"
     inkscape:window-width="958"
     inkscape:window-height="991"
     inkscape:window-x="952"
     inkscape:window-y="0"
     inkscape:window-maximized="0" />
  <metadata
     id="metadata5">
    <rdf:RDF>
      <cc:Work
         rdf:about="">
        <dc:format>image/svg+xml</dc:format>
        <dc:type
           rdf:resource="http://purl.org/dc/dcmitype/StillImage" />
        <dc:title />
      </cc:Work>
    </rdf:RDF>
  </metadata>
  <g
     inkscape:label="Layer 1"
     inkscape:groupmode="layer"
     id="layer1"
     transform="translate(0,-177.93748)">
    <path
       style="fill:#151515;fill-opacity:1;stroke:none;stroke-width:0.26458332px;stroke-linecap:butt;stroke-linejoin:miter;stroke-opacity:1"
       d="m 30.294101,197.69356 c -0.300249,-0.62948 -0.363849,-1.41673 -0.400905,-2.22168 -0.779271,-1.77225 -2.728765,-2.27468 -2.18827,-5.47902 l 0.7684,-0.13363 c -0.190315,-0.87191 -0.352386,-1.7297 -0.417608,-2.53906 l 0.03341,-0.70158 -0.367496,-0.43432 0.467723,-0.41761 0.01669,-0.21715 c -0.205573,-0.28093 -0.542853,-0.54723 0.06682,-0.91874 -0.250566,-0.11616 -0.501131,-0.47412 -0.751697,-0.93545 l 1.319644,-0.11693 0.01669,-0.85192 0.417608,-0.53454 -0.06682,-0.30068 0.734991,-0.0334 0.133636,-0.55124 c -0.869552,-0.48999 -0.302176,-0.97999 0.06682,-1.46998 l 0.501128,0.50113 0.334087,-0.0501 c 0.629756,-1.70924 2.386494,-0.66403 3.507915,-0.53454 l 2.906553,0.15034 -0.250563,0.45102 0.03341,0.31738 c 1.044127,-0.2509 1.771366,0.0528 2.65298,0.0863 v 0.87407 c 0.763342,0.23587 1.499419,0.008 2.291479,0.73233 l -0.472469,0.18899 c 3.944809,1.51688 0.873401,4.96926 0.755952,7.60677 1.756917,0.58016 -0.0806,3.1676 -0.496094,4.96093 1.141902,0.46987 1.063713,0.68555 1.535521,1.01581 3.82435,-0.56126 5.77765,1.6121 8.57534,2.55134 3.86399,0.32641 5.66911,3.15647 7.89025,5.48065 l 5.43341,2.78758 c 4.10415,1e-4 6.52335,3.82377 9.58545,6.18852 0.35678,7.65999 -2.67272,14.33232 -5.21176,21.1477 l -0.10023,1.26953 c 1.2624,1.90069 1.56036,4.10593 1.63703,6.38106 0.32653,1.1407 1.51474,1.36725 1.83748,3.60814 l -1.26953,-0.26727 c 0.54607,0.64006 0.95893,1.25066 1.00226,1.70384 -1.22389,0.2562 -1.2728,0.2644 -1.83748,0.13364 v 0.50113 c -0.84573,0.30352 -0.87222,0.30952 -2.60588,-0.0668 0.13232,0.47754 -0.1701,0.52035 -0.46772,0.56795 -3.14717,-2.13724 -3.57566,-5.79976 -3.54132,-9.72193 0.0599,-1.66425 -0.6747,-1.51233 0.56795,-5.87993 0.74401,-3.54963 1.86556,-5.61429 1.73725,-12.59507 -0.81294,-0.51674 -1.62589,-0.94907 -2.43883,-2.07134 -0.55286,-0.38669 -0.91346,-0.85578 -1.87089,-1.06908 l -3.34087,-0.63477 -0.10023,4.40995 c 2.24644,5.1338 1.00812,10.26761 1.46999,15.40141 0.0306,3.76606 -0.84305,7.5633 -2.63929,11.39236 l -1.70384,9.2208 0.73499,0.33409 -0.33409,3.20723 0.83522,9.85556 c 10e-4,1.89692 -0.40131,3.89351 -3.60814,6.58152 h -2.50565 c -1.36953,-0.73166 -2.36814,-2.08151 -2.53906,-4.81086 -8.535049,9.4207 -12.181611,7.10299 -14.067452,4.73361 -2.257627,-2.83649 -0.997651,-9.11654 3.443489,-14.92325 -0.689687,-0.0614 0.896227,-4.81628 1.469982,-7.48355 -3.916484,4.52332 -6.784214,4.75627 -9.755338,5.41221 l -5.34539,6.08038 c 0.593536,1.16449 -0.551653,2.05078 -1.469983,2.97337 0.467483,4.2725 -0.07446,8.80374 -3.073598,13.96483 l -1.536801,8.35218 c 0.711453,1.44577 0.373448,3.47457 -0.02767,5.53843 -1.361426,0.28669 -1.25466,0.19921 -4.405498,-0.27358 -1.521474,-0.22829 -4.0222359,0.23721 -5.9569279,0.41462 -1.9058559,-0.0516 -5.7085779,0.66859 -5.1699209,-1.03569 0.96003,-1.24269 0.75961,-2.25933 6.3145849,-4.39714 l 4.0325139,-2.80803 c -0.787835,-5.1103 -0.476649,-10.84057 -0.307107,-15.14274 l 0.614212,-0.85045 c -0.238847,-2.32397 0.829821,-4.55777 2.4096,-6.75632 -0.445462,-2.18124 0.361379,-4.36248 3.000203,-6.54372 -0.205136,-2.13524 0.615736,-4.0688 1.801236,-5.93068 -0.399567,-0.0327 -0.400086,-0.39788 -0.434314,-0.735 1.071487,-2.27269 2.025416,-3.9576 2.973374,-5.61265 0.340371,-3.69738 2.303859,-4.4048 3.741772,-6.08039 0.203876,-3.14806 2.680149,-4.54813 4.376539,-6.5481 l 0.100227,-0.30068 -0.400904,-0.43431 c -0.440374,-2.30775 0.598298,-4.64508 3.30746,-7.01582 0.0379,-1.35647 0.174021,-2.90938 0.400902,-4.64381 -0.165095,-0.30266 0.790919,-1.35868 -1.403164,-2.40543 l 0.200453,-0.90203 c -1.228172,-0.69739 -2.617547,-0.97163 -3.374279,-2.90656 -0.897809,1.71843 -0.885108,2.98161 -1.069078,4.34313 0.285343,1.19377 0.356076,2.4182 0.200454,3.67496 -0.372153,0.0528 -0.661928,0.35283 -1.269532,-0.30068 -0.697022,4.15873 -5.121593,10.19784 -10.289876,14.43255 0.809676,2.14923 -0.426285,2.86652 -1.436573,3.74178 -0.678222,1.01024 -1.181255,3.3052 -2.03793,3.00678 -0.343471,-0.21849 -0.352434,-0.4312 -0.467722,-2.00452 -0.576057,0.0845 -0.937679,-0.15256 -2.472243,1.36975 0.766984,0.42908 0.625587,0.95214 -0.434313,1.57021 0.378437,0.34557 0.955809,0.34299 0.868627,1.50339 -0.151122,0.31183 -0.395595,0.55831 -1.169305,0.43432 0.0359,0.87304 -0.5267029,1.32418 -0.6894239,1.21655 -0.518214,0.43732 -1.518798,-2.30536 -0.74715,-6.99626 0.162089,-0.25133 -0.03679,-0.56836 1.0356689,-1.10248 -0.3097109,-0.36212 -0.02928,-0.55563 0.06682,-0.80181 1.393447,-1.43491 2.551974,-2.61813 4.777441,-4.94449 1.56316,-4.11878 1.869592,-8.34528 5.412208,-12.2944 1.290957,-4.50725 3.534998,-9.67944 2.305201,-12.42803 0.224126,-4.45936 0.110521,-8.97549 7.617184,-12.2109 z"
       id="path826"
       inkscape:connector-curvature="0"
       sodipodi:nodetypes="cccccccccccccccccccccccccccccccccccccccccccccccccccccccccccccsccccccccscccccccccccccccccccccccccccccccccccccccc" />
  </g>
</svg>
